<?xml version="1.0" standalone="no"?>
<svg xmlns="http://www.w3.org/2000/svg" width="200" height="200" version="1.1">
<rect x="0" y="0" width="40" height="40" fill="blue"/>
<rect x="40" y="0" width="40" height="40" fill="blue"/>
<rect x="80" y="0" width="40" height="40" fill="blue"/>
<rect x="120" y="0" width="40" height="40" fill="blue"/>
<rect x="160" y="0" width="40" height="40" fill="blue"/>
<rect x="0" y="40" width="40" height="40" fill="blue"/>
<rect x="40" y="40" width="40" height="40" fill="blue"/>
<rect x="80" y="40" width="40" height="40" fill="blue"/>
<rect x="120" y="40" width="40" height="40" fill="red"/>
<rect x="160" y="40" width="40" height="40" fill="red"/>
<rect x="0" y="80" width="40" height="40" fill="blue"/>
<rect x="40" y="80" width="40" height="40" fill="blue"/>
<rect x="80" y="80" width="40" height="40" fill="red"/>
<rect x="120" y="80" width="40" height="40" fill="blue"/>
<rect x="160" y="80" width="40" height="40" fill="blue"/>
<rect x="0" y="120" width="40" height="40" fill="blue"/>
<rect x="40" y="120" width="40" height="40" fill="red"/>
<rect x="80" y="120" width="40" height="40" fill="blue"/>
<rect x="120" y="120" width="40" height="40" fill="blue"/>
<rect x="160" y="120" width="40" height="40" fill="blue"/>
<rect x="0" y="160" width="40" height="40" fill="blue"/>
<rect x="40" y="160" width="40" height="40" fill="red"/>
<rect x="80" y="160" width="40" height="40" fill="blue"/>
<rect x="120" y="160" width="40" height="40" fill="blue"/>
<rect x="160" y="160" width="40" height="40" fill="blue"/>
</svg>

